# Blender 3.6.2
# www.blender.org
mtllib WorkBuilding.mtl
o Walls
v 18.036016 13.679100 -16.000000
v 18.036016 0.000000 -16.000000
v 18.036016 13.679100 -15.157005
v 18.036016 0.000000 -15.157005
v -18.036016 13.679100 -16.000000
v -18.036016 0.000000 -16.000000
v -18.036016 13.679100 -15.157005
v -18.036016 0.000000 -15.157005
v -17.262463 0.000000 -16.000000
v -17.262463 13.679100 -15.157005
v -17.262463 0.000000 -15.157005
v -17.262463 13.679100 -16.000000
v 17.344687 0.000000 -15.157005
v 17.344687 13.679100 -16.000000
v 17.344687 0.000000 -16.000000
v 17.344687 13.679100 -15.157005
v -18.036016 0.000000 -0.609221
v -18.036016 13.679100 -0.609221
v 18.036016 13.679100 -0.609221
v 18.036016 0.000000 -0.609221
v -17.262463 13.679100 -0.609221
v 17.344687 0.000000 -0.609221
v -17.262463 0.000000 -0.609221
v 17.344687 13.679100 -0.609221
v -17.262463 13.679100 -1.300037
v -17.262463 0.000000 -1.300037
v -18.036016 0.000000 -1.300037
v -18.036016 13.679100 -1.300037
v 17.344687 0.000000 -1.218765
v 17.344687 13.679100 -1.218765
v 18.036016 13.679100 -1.218765
v 18.036016 0.000000 -1.218765
v -10.598115 13.679100 -0.609221
v -10.598115 0.000000 -0.609221
v -10.598115 13.679100 -1.300037
v -10.598115 0.000000 -1.300037
v -4.558260 13.679100 -0.609221
v -4.558260 0.000000 -0.609221
v -4.558260 0.000000 -1.218765
v -4.558260 13.679100 -1.218765
v 3.797308 0.000000 -1.218765
v 3.797308 13.679100 -1.218765
v 3.797308 13.679100 -0.609221
v 3.797308 0.000000 -0.609221
v 4.527407 13.679100 -1.218765
v 4.527407 0.000000 -0.609221
v 4.527407 0.000000 -1.218765
v 4.527407 13.679100 -0.609221
v -11.312152 0.000000 -0.609221
v -11.312152 13.679100 -0.609221
v -11.312152 13.679100 -1.300037
v -11.312152 0.000000 -1.300037
v -10.598115 13.679100 16.887131
v -10.598115 0.000000 16.887131
v -11.312152 0.000000 16.887131
v 4.527407 13.679100 16.887131
v 3.797308 13.679100 16.887131
v 3.797308 0.000000 16.887131
v 4.527407 0.000000 16.887131
v -11.312152 13.679100 16.887131
v 3.797308 0.000000 16.204494
v 3.797308 13.679100 16.204494
v 4.527407 13.679100 16.204494
v 4.527407 0.000000 16.204494
v -1.176571 13.679100 16.887131
v -1.176571 0.000000 16.887131
v -1.176571 0.000000 16.204494
v -1.176571 13.679100 16.204494
v -11.312152 0.000000 16.187277
v -11.312152 13.679100 16.187277
v -10.598115 0.000000 16.187277
v -10.598115 13.679100 16.187277
v -5.448687 13.679100 16.887131
v -5.448687 0.000000 16.887131
v -5.448687 0.000000 16.187277
v -5.448687 13.679100 16.187277
v -17.262463 6.839550 -15.157005
v 17.344687 6.839550 -15.157005
v -17.262463 6.839550 -1.300037
v 17.344687 6.839550 -1.218765
v -10.598115 6.839550 -0.609221
v -10.598115 6.839550 -1.300037
v -4.558260 6.839550 -0.609221
v -4.558260 6.839550 -1.218765
v 3.797308 6.839550 -0.609221
v 3.797308 6.839550 -1.218765
v 4.527407 6.839550 -1.218765
v -11.312152 6.839550 -1.300037
v 3.797308 6.839550 16.204494
v -1.176571 6.839550 16.887131
v -1.176571 6.839550 16.204494
v -10.598115 6.839550 16.187277
v -5.448687 6.839550 16.887131
v -5.448687 6.839550 16.187277
vn -0.0000 1.0000 -0.0000
vn -0.0000 -0.0000 -1.0000
vn -0.0000 -1.0000 -0.0000
vn -0.0000 -0.0000 1.0000
vn 1.0000 -0.0000 -0.0000
vn -1.0000 -0.0000 -0.0000
vn 0.0040 -0.0000 -1.0000
vt 0.869639 0.500000
vt 0.875000 0.500000
vt 0.875000 0.750000
vt 0.869639 0.750000
vt 0.500000 0.754791
vt 0.375000 0.754791
vt 0.375000 0.754791
vt 0.370209 0.500000
vt 0.375000 0.500000
vt 0.375000 0.750000
vt 0.370209 0.750000
vt 0.125000 0.500000
vt 0.130361 0.500000
vt 0.130361 0.750000
vt 0.125000 0.750000
vt 0.625000 0.754791
vt 0.625000 0.994639
vt 0.500000 0.994639
vt 0.629791 0.500000
vt 0.629791 0.750000
vt 0.625000 0.500000
vt 0.625000 0.750000
vt 0.130361 0.750000
vt 0.370209 0.750000
vt 0.500000 0.994639
vt 0.625000 0.754791
vt 0.370209 0.750000
vt 0.370209 0.750000
vt 0.629791 0.750000
vt 0.869639 0.750000
vt 0.375000 0.754791
vt 0.375000 0.994639
vt 0.375000 0.994639
vt 0.375000 0.994639
vt 0.625000 0.754791
s 0
usemtl Material
f 12/1/1 5/2/1 7/3/1 10/4/1
f 86/5/2 41/6/2 39/7/2 84/5/2
f 15/8/3 2/9/3 4/10/3 13/11/3
f 6/12/3 9/13/3 11/14/3 8/15/3
f 78/5/4 16/16/4 10/17/4 77/18/4
f 14/19/1 12/1/1 10/4/1 16/20/1
f 1/21/1 14/19/1 16/20/1 3/22/1
f 69/23/3 71/14/3 54/14/3 55/14/3
f 9/13/3 15/8/3 13/11/3 11/14/3
f 27/15/3 26/14/3 23/14/3 17/15/3
f 31/22/1 30/20/1 24/20/1 19/22/1
f 29/24/3 32/10/3 20/10/3 22/11/3
f 25/4/1 28/3/1 18/3/1 21/4/1
f 10/4/1 7/3/1 28/3/1 25/4/1
f 8/15/3 11/14/3 26/14/3 27/15/3
f 77/18/5 10/17/5 25/17/5 79/18/5
f 13/11/3 4/10/3 32/10/3 29/24/3
f 3/22/1 16/20/1 30/20/1 31/22/1
f 78/5/6 13/7/6 29/7/6 80/5/6
f 82/18/5 35/17/5 33/17/5 81/18/5
f 88/25/2 51/17/2 35/17/2 82/18/2
f 51/4/1 50/4/1 33/4/1 35/4/1
f 49/14/3 52/14/3 36/14/3 34/14/3
f 84/5/6 39/7/6 38/7/6 83/5/6
f 85/5/4 43/26/4 37/16/4 83/5/4
f 43/20/1 42/20/1 40/20/1 37/20/1
f 41/27/3 44/11/3 38/11/3 39/24/3
f 47/28/3 46/11/3 44/11/3 41/27/3
f 48/20/1 45/29/1 42/20/1 43/20/1
f 87/5/2 47/6/2 41/6/2 86/5/2
f 80/5/2 29/7/2 47/6/2 87/5/2
f 24/20/1 30/20/1 45/29/1 48/20/1
f 29/24/3 22/11/3 46/11/3 47/28/3
f 23/14/3 26/14/3 52/14/3 49/14/3
f 25/4/1 21/4/1 50/4/1 51/4/1
f 79/18/2 25/17/2 51/17/2 88/25/2
f 72/4/1 70/30/1 60/4/1 53/4/1
f 72/4/1 53/4/1 73/4/1 76/4/1
f 63/20/1 62/20/1 57/20/1 56/20/1
f 61/11/3 64/11/3 59/11/3 58/11/3
f 44/11/3 46/11/3 64/11/3 61/11/3
f 48/20/1 43/20/1 62/20/1 63/20/1
f 85/5/6 44/31/6 61/31/6 89/5/6
f 91/5/6 67/31/6 66/31/6 90/5/6
f 61/11/3 58/11/3 66/11/3 67/11/3
f 89/5/2 61/31/2 67/31/2 91/5/2
f 57/20/1 62/20/1 68/20/1 65/20/1
f 81/18/5 33/17/5 72/17/5 92/18/5
f 33/4/1 50/4/1 70/30/1 72/4/1
f 49/14/3 34/14/3 71/14/3 69/23/3
f 92/18/2 72/17/2 76/17/2 94/18/2
f 54/14/3 71/14/3 75/14/3 74/14/3
f 71/32/2 92/18/2 94/18/2 75/32/2
f 75/32/5 94/18/5 93/18/5 74/32/5
f 34/32/5 81/18/5 92/18/5 71/32/5
f 62/26/2 89/5/2 91/5/2 68/26/2
f 43/26/6 85/5/6 89/5/6 62/26/6
f 26/33/2 79/18/2 88/25/2 52/34/2
f 30/16/2 80/5/2 87/5/2 45/35/2
f 45/35/2 87/5/2 86/5/2 42/35/2
f 44/31/4 85/5/4 83/5/4 38/7/4
f 40/16/6 84/5/6 83/5/6 37/16/6
f 52/34/2 88/25/2 82/18/2 36/33/2
f 36/33/5 82/18/5 81/18/5 34/32/5
f 16/16/6 78/5/6 80/5/6 30/16/6
f 11/32/5 77/18/5 79/18/5 26/33/5
f 13/7/4 78/5/4 77/18/4 11/32/4
f 42/35/2 86/5/2 84/5/2 40/16/2
f 93/18/3 94/18/3 91/5/3 90/5/3
f 94/18/7 76/17/7 68/26/7 91/5/7
f 76/4/1 73/4/1 65/20/1 68/20/1
o Floor
v -17.560093 0.000000 -0.814004
v 17.560093 0.000000 -0.814004
v -17.560093 0.000000 -15.512024
v 17.560093 0.000000 -15.512024
v -11.004325 0.000000 -0.814004
v -11.004325 0.000000 -15.512024
v 4.214424 0.000000 -0.814004
v 4.214422 0.000000 -15.512024
v -10.945791 0.000000 -15.512024
v -10.945791 0.000000 16.448280
v 4.096903 0.000000 16.448280
v 4.096901 0.000000 -15.512024
vn -0.0000 1.0000 -0.0000
vt 0.620000 0.000000
vt 1.000000 0.000000
vt 1.000000 1.000000
vt 0.620000 1.000000
vt 0.000000 0.000000
vt 0.186667 0.000000
vt 0.186667 1.000000
vt 0.000000 1.000000
vt 0.616654 0.000000
vt 0.616654 1.000000
vt 0.188333 0.000000
vt 0.188333 1.000000
s 0
f 101/36/8 96/37/8 98/38/8 102/39/8
f 95/40/8 99/41/8 100/42/8 97/43/8
f 105/44/8 101/36/8 102/39/8 106/45/8
f 99/41/8 104/46/8 103/47/8 100/42/8
f 104/46/8 105/44/8 106/45/8 103/47/8
o Roof
v 17.618614 13.492749 -0.931036
v -17.560101 13.492749 -0.931036
v 17.618614 13.492749 -15.512031
v -17.560101 13.492749 -15.512031
v -11.073660 13.492749 -0.931036
v -11.073660 13.492749 -15.512031
v -10.898707 13.492749 -15.512031
v -10.898707 13.492749 16.740871
v 4.178074 13.492749 -15.512031
v 4.178072 13.492749 -0.931036
v 4.061197 13.492749 16.740871
v 4.061199 13.492749 -15.512031
vn -0.0000 -1.0000 -0.0000
vt 0.815615 0.000000
vt 1.000000 0.000000
vt 1.000000 1.000000
vt 0.815615 1.000000
vt 0.810641 0.000000
vt 0.810641 1.000000
vt 0.385387 0.000000
vt 0.385387 1.000000
vt 0.000000 0.000000
vt 0.382065 0.000000
vt 0.382065 1.000000
vt 0.000000 1.000000
s 0
f 111/48/9 108/49/9 110/50/9 112/51/9
f 114/52/9 111/48/9 112/51/9 113/53/9
f 117/54/9 114/52/9 113/53/9 118/55/9
f 107/56/9 116/57/9 115/58/9 109/59/9
f 116/57/9 117/54/9 118/55/9 115/58/9
